STARTFONT 2.1
FONT -FontForge-F5.6-Regular-R-Normal--30-290-75-75-P-210-ISO10646-1
SIZE 29 75 75
FONTBOUNDINGBOX 34 33 -8 -6
COMMENT "Generated by fontforge, http://fontforge.sourceforge.net"
COMMENT "Copyright \(C\) 2018 by Sora Sagano."
STARTPROPERTIES 39
FOUNDRY "FontForge"
FAMILY_NAME "F5.6"
WEIGHT_NAME "Regular"
SLANT "R"
SETWIDTH_NAME "Normal"
ADD_STYLE_NAME ""
PIXEL_SIZE 30
POINT_SIZE 290
RESOLUTION_X 75
RESOLUTION_Y 75
SPACING "P"
AVERAGE_WIDTH 210
CHARSET_REGISTRY "ISO10646"
CHARSET_ENCODING "1"
FONTNAME_REGISTRY ""
CHARSET_COLLECTIONS "ISO10646-1"
FONT_NAME "F5.6-Regular"
FACE_NAME "F5.6 Regular"
COPYRIGHT "Copyright \(C\) 2018 by Sora Sagano."
FONT_VERSION "000.110"
FONT_ASCENT 26
FONT_DESCENT 4
UNDERLINE_POSITION -3
UNDERLINE_THICKNESS 2
X_HEIGHT 19
CAP_HEIGHT 25
RAW_ASCENT 870
RAW_DESCENT 130
NORM_SPACE 9
RELATIVE_WEIGHT 40
RELATIVE_SETWIDTH 50
SUPERSCRIPT_X 0
SUPERSCRIPT_Y 10
SUPERSCRIPT_SIZE 18
SUBSCRIPT_X 0
SUBSCRIPT_Y 2
SUBSCRIPT_SIZE 18
AVG_LOWERCASE_WIDTH 205
AVG_UPPERCASE_WIDTH 240
ENDPROPERTIES
CHARS 72
STARTCHAR space
ENCODING 32
SWIDTH 300 0
DWIDTH 9 0
BBX 1 1 0 0
BITMAP
00
ENDCHAR
STARTCHAR hyphen
ENCODING 45
SWIDTH 500 0
DWIDTH 15 0
BBX 11 4 2 8
BITMAP
FFC0
FFE0
FFE0
FFE0
ENDCHAR
STARTCHAR period
ENCODING 46
SWIDTH 200 0
DWIDTH 6 0
BBX 4 4 1 0
BITMAP
60
F0
F0
F0
ENDCHAR
STARTCHAR slash
ENCODING 47
SWIDTH 558 0
DWIDTH 17 0
BBX 12 27 2 0
BITMAP
0070
00F0
00F0
00E0
01E0
01E0
01C0
03C0
03C0
0380
0780
0780
0780
0700
0F00
0F00
0E00
1E00
1E00
1C00
3C00
3C00
3800
7800
7800
7000
F000
ENDCHAR
STARTCHAR zero
ENCODING 48
SWIDTH 840 0
DWIDTH 25 0
BBX 17 26 4 0
BITMAP
3FFE00
7FFF00
7FFF80
F00780
F00780
F00780
F00780
F00F80
F01F80
F03F80
F07F80
F0F780
F1E780
F3C780
F78780
FF0780
FE0780
FC0780
F80780
F00780
F00780
F00780
F00780
7FFF80
7FFF00
3FFE00
ENDCHAR
STARTCHAR one
ENCODING 49
SWIDTH 578 0
DWIDTH 17 0
BBX 9 26 3 0
BITMAP
0380
0380
0380
7F80
FF80
FF80
FF80
0380
0380
0380
0380
0380
0380
0380
0380
0380
0380
0380
0380
0380
0380
0380
0380
0380
0380
0380
ENDCHAR
STARTCHAR two
ENCODING 50
SWIDTH 768 0
DWIDTH 23 0
BBX 15 26 4 0
BITMAP
3FFC
7FFC
FFFE
F01E
F01E
F01E
F01E
001E
001E
003E
007C
00F8
03F0
07E0
0F80
3F00
7E00
7800
F000
F000
F000
F000
F000
FFFE
FFFE
FFFE
ENDCHAR
STARTCHAR three
ENCODING 51
SWIDTH 740 0
DWIDTH 22 0
BBX 15 26 3 0
BITMAP
7FFC
7FFE
7FFE
003C
007C
00F8
01F0
01E0
03C0
0780
0F00
1FFC
1FFE
1FFE
000E
000E
000E
000E
000E
E00E
E00E
E00E
E00E
FFFE
FFFE
7FFC
ENDCHAR
STARTCHAR four
ENCODING 52
SWIDTH 763 0
DWIDTH 23 0
BBX 19 26 2 0
BITMAP
01E000
03C000
03C000
03C000
078000
078000
0F0000
0F1E00
0F1E00
1E1E00
1E1E00
3C1E00
3C1E00
781E00
781E00
781E00
FFFFE0
FFFFE0
7FFFE0
001E00
001E00
001E00
001E00
001E00
001E00
001E00
ENDCHAR
STARTCHAR five
ENCODING 53
SWIDTH 778 0
DWIDTH 23 0
BBX 16 26 3 0
BITMAP
1FFE
3FFE
7FFE
7800
7800
7800
7800
7800
7800
7800
7800
7FFE
7FFF
3FFF
0007
0007
0007
0007
0007
F007
F007
F007
F007
FFFF
7FFF
3FFE
ENDCHAR
STARTCHAR six
ENCODING 54
SWIDTH 810 0
DWIDTH 24 0
BBX 16 26 4 0
BITMAP
3FFC
7FFE
7FFE
F00E
F00E
F00E
F00E
F000
F000
F000
F000
FFFE
FFFF
FFFF
F00F
F00F
F00F
F00F
F00F
F00F
F00F
F00F
F00F
7FFF
7FFF
3FFE
ENDCHAR
STARTCHAR seven
ENCODING 55
SWIDTH 716 0
DWIDTH 21 0
BBX 17 26 2 0
BITMAP
7FFF00
FFFF80
FFFF80
F00780
F00700
F00F00
F00F00
001E00
001E00
001E00
003C00
003C00
007800
007800
007800
00F000
00F000
01E000
01E000
01E000
03C000
03C000
078000
078000
078000
0F0000
ENDCHAR
STARTCHAR eight
ENCODING 56
SWIDTH 823 0
DWIDTH 25 0
BBX 16 26 4 0
BITMAP
3FFE
7FFF
7FFF
7007
7007
7007
7007
7007
700F
780F
7E3F
3FFE
0FF8
3FFC
7E7E
781F
F007
F007
F007
F007
F007
F007
F007
FFFF
7FFF
7FFE
ENDCHAR
STARTCHAR nine
ENCODING 57
SWIDTH 810 0
DWIDTH 24 0
BBX 16 26 4 0
BITMAP
7FFE
7FFE
FFFF
F00F
F00F
F00F
F00F
F00F
F00F
F00F
F00F
F00F
FFFF
7FFF
7FFF
000F
000F
000F
000F
700F
700F
700F
700F
7FFF
7FFE
3FFE
ENDCHAR
STARTCHAR colon
ENCODING 58
SWIDTH 400 0
DWIDTH 12 0
BBX 4 19 4 3
BITMAP
60
F0
F0
F0
00
00
00
00
00
00
00
00
00
00
00
F0
F0
F0
60
ENDCHAR
STARTCHAR A
ENCODING 65
SWIDTH 847 0
DWIDTH 25 0
BBX 20 26 3 0
BITMAP
01F000
01F800
03F800
03F800
03BC00
07BC00
079C00
071E00
071E00
0F1E00
0F0E00
0E0F00
1E0F00
1E0700
1FFF80
1FFF80
3FFF80
3C0380
3803C0
7803C0
7803C0
7801E0
7001E0
F001E0
F000E0
F000F0
ENDCHAR
STARTCHAR B
ENCODING 66
SWIDTH 830 0
DWIDTH 25 0
BBX 17 26 4 0
BITMAP
7FF000
FFF800
FFF800
F03800
F03800
F03800
F03800
F03800
F03800
F03800
F03800
FFFF00
FFFF80
FFFF80
F00780
F00780
F00780
F00780
F00780
F00780
F00780
F00780
F00780
FFFF80
FFFF80
7FFF00
ENDCHAR
STARTCHAR C
ENCODING 67
SWIDTH 807 0
DWIDTH 24 0
BBX 17 26 4 0
BITMAP
3FFE00
7FFF00
7FFF80
F00780
F00780
F00780
F00780
F00000
F00000
F00000
F00000
F00000
F00000
F00000
F00000
F00000
F00000
F00000
F00000
F00780
F00780
F00780
F00780
7FFF80
7FFF00
3FFE00
ENDCHAR
STARTCHAR D
ENCODING 68
SWIDTH 839 0
DWIDTH 25 0
BBX 18 26 4 0
BITMAP
7FE000
FFF000
FFF800
F0FC00
F03C00
F01E00
F01E00
F00F00
F00F00
F00780
F00780
F003C0
F003C0
F003C0
F003C0
F003C0
F003C0
F003C0
F003C0
F003C0
F003C0
F003C0
F003C0
FFFFC0
FFFF80
7FFF80
ENDCHAR
STARTCHAR E
ENCODING 69
SWIDTH 738 0
DWIDTH 22 0
BBX 15 26 4 0
BITMAP
7FFC
FFFC
FFFC
F000
F000
F000
F000
F000
F000
F000
F000
FFF8
FFF8
FFF8
F000
F000
F000
F000
F000
F000
F000
F000
F000
FFFE
FFFE
7FFE
ENDCHAR
STARTCHAR F
ENCODING 70
SWIDTH 724 0
DWIDTH 22 0
BBX 15 26 4 0
BITMAP
7FFE
FFFE
FFFE
F000
F000
F000
F000
F000
F000
F000
F000
FFFC
FFFC
FFFC
F000
F000
F000
F000
F000
F000
F000
F000
F000
F000
F000
F000
ENDCHAR
STARTCHAR G
ENCODING 71
SWIDTH 852 0
DWIDTH 26 0
BBX 17 26 4 0
BITMAP
3FFF00
7FFF80
7FFF80
F00780
F00780
F00780
F00780
F00000
F00000
F00000
F00000
F07F80
F07F80
F07F80
F00380
F00380
F00380
F00380
F00380
F00380
F00380
F00380
F00380
7FFF80
7FFF80
3FFF00
ENDCHAR
STARTCHAR H
ENCODING 72
SWIDTH 900 0
DWIDTH 27 0
BBX 18 26 4 0
BITMAP
7001C0
F001C0
F001C0
F001C0
F001C0
F001C0
F001C0
F001C0
F001C0
F001C0
F001C0
FFFFC0
FFFFC0
FFFFC0
F001C0
F001C0
F001C0
F001C0
F001C0
F001C0
F001C0
F001C0
F001C0
F001C0
F001C0
F001C0
ENDCHAR
STARTCHAR I
ENCODING 73
SWIDTH 590 0
DWIDTH 18 0
BBX 11 26 3 0
BITMAP
FFE0
FFE0
FFE0
0F00
0F00
0F00
0F00
0F00
0F00
0F00
0F00
0F00
0F00
0F00
0F00
0F00
0F00
0F00
0F00
0F00
0F00
0F00
0F00
FFE0
FFE0
FFE0
ENDCHAR
STARTCHAR J
ENCODING 74
SWIDTH 720 0
DWIDTH 22 0
BBX 15 26 2 0
BITMAP
000E
001E
001E
001E
001E
001E
001E
001E
001E
001E
001E
001E
001E
001E
001E
001E
001E
001E
001E
F01E
F01E
F01E
F01E
FFFE
7FFE
3FFC
ENDCHAR
STARTCHAR K
ENCODING 75
SWIDTH 802 0
DWIDTH 24 0
BBX 18 26 4 0
BITMAP
700780
F00780
F00F00
F00F00
F01E00
F01E00
F03C00
F03C00
F07800
F07800
F0F000
FFF000
FFE000
FFF000
F0F000
F07800
F07800
F03C00
F03C00
F01E00
F01E00
F00F00
F00F00
F00780
F00780
F003C0
ENDCHAR
STARTCHAR L
ENCODING 76
SWIDTH 699 0
DWIDTH 21 0
BBX 15 26 4 0
BITMAP
7000
F000
F000
F000
F000
F000
F000
F000
F000
F000
F000
F000
F000
F000
F000
F000
F000
F000
F000
F000
F000
F000
F000
FFFE
FFFE
7FFE
ENDCHAR
STARTCHAR M
ENCODING 77
SWIDTH 1000 0
DWIDTH 30 0
BBX 21 26 4 0
BITMAP
7C00F8
7E01F8
FE01F8
FF03F8
F787B8
F3CF38
F3FF38
F1FE38
F0FC38
F07838
F00038
F00038
F00038
F00038
F00038
F00038
F00038
F00038
F00038
F00038
F00038
F00038
F00038
F00038
F00038
700038
ENDCHAR
STARTCHAR N
ENCODING 78
SWIDTH 880 0
DWIDTH 26 0
BBX 18 26 4 0
BITMAP
7003C0
F803C0
FC03C0
FE03C0
FF03C0
FF83C0
F7C3C0
F3E3C0
F1F3C0
F0FBC0
F07FC0
F03FC0
F01FC0
F007C0
F003C0
F003C0
F003C0
F003C0
F003C0
F003C0
F003C0
F003C0
F003C0
F003C0
F003C0
F003C0
ENDCHAR
STARTCHAR O
ENCODING 79
SWIDTH 880 0
DWIDTH 26 0
BBX 18 26 4 0
BITMAP
3FFF80
7FFFC0
7FFFC0
F003C0
F003C0
F003C0
F003C0
F003C0
F003C0
F003C0
F003C0
F003C0
F003C0
F003C0
F003C0
F003C0
F003C0
F003C0
F003C0
F003C0
F003C0
F003C0
F003C0
7FFFC0
7FFFC0
3FFF80
ENDCHAR
STARTCHAR P
ENCODING 80
SWIDTH 779 0
DWIDTH 23 0
BBX 16 26 4 0
BITMAP
7FFE
FFFF
FFFF
F00F
F00F
F00F
F00F
F00F
F00F
F00F
F00F
FFFF
FFFF
FFFE
F000
F000
F000
F000
F000
F000
F000
F000
F000
F000
F000
F000
ENDCHAR
STARTCHAR Q
ENCODING 81
SWIDTH 880 0
DWIDTH 26 0
BBX 18 30 4 -4
BITMAP
3FFF80
7FFFC0
7FFFC0
F003C0
F003C0
F003C0
F003C0
F003C0
F003C0
F003C0
F003C0
F003C0
F003C0
F003C0
F003C0
F003C0
F003C0
F003C0
F003C0
F1E3C0
F1E3C0
F1E3C0
F1E3C0
7FFFC0
7FFFC0
3FFF80
01E000
01E000
01E000
01E000
ENDCHAR
STARTCHAR R
ENCODING 82
SWIDTH 800 0
DWIDTH 24 0
BBX 17 26 4 0
BITMAP
7FFC00
FFFE00
FFFE00
F00E00
F00E00
F00E00
F00E00
F00E00
F00E00
F00E00
F00E00
FFFE00
FFFE00
FFFE00
F1E000
F0F000
F0F000
F07800
F07800
F03C00
F03C00
F01E00
F01F00
F00F00
F00F80
F00780
ENDCHAR
STARTCHAR S
ENCODING 83
SWIDTH 743 0
DWIDTH 22 0
BBX 15 26 4 0
BITMAP
7FF8
7FFC
FFFC
F03C
F03C
F03C
F03C
F000
F800
7C00
7E00
1F00
0FC0
07E0
03F0
00F8
007C
003C
001E
E01E
E01E
E01E
E01E
FFFE
FFFC
7FF8
ENDCHAR
STARTCHAR T
ENCODING 84
SWIDTH 720 0
DWIDTH 22 0
BBX 18 26 2 0
BITMAP
FFFFC0
FFFFC0
FFFFC0
01E000
01E000
01E000
01E000
01E000
01E000
01E000
01E000
01E000
01E000
01E000
01E000
01E000
01E000
01E000
01E000
01E000
01E000
01E000
01E000
01E000
01E000
01E000
ENDCHAR
STARTCHAR U
ENCODING 85
SWIDTH 870 0
DWIDTH 26 0
BBX 18 26 4 0
BITMAP
7003C0
F003C0
F003C0
F003C0
F003C0
F003C0
F003C0
F003C0
F003C0
F003C0
F003C0
F003C0
F003C0
F003C0
F003C0
F003C0
F003C0
F003C0
F003C0
F003C0
F003C0
F003C0
F003C0
7FFFC0
7FFF80
3FFF00
ENDCHAR
STARTCHAR V
ENCODING 86
SWIDTH 815 0
DWIDTH 24 0
BBX 20 26 2 0
BITMAP
F000F0
7000F0
7800F0
7800E0
7801E0
3C01E0
3C01E0
3C01C0
1C03C0
1E03C0
1E0380
1E0780
0E0780
0F0780
0F0700
070F00
078F00
078E00
078E00
039E00
03DE00
03DC00
01FC00
01FC00
01F800
00F800
ENDCHAR
STARTCHAR W
ENCODING 87
SWIDTH 1000 0
DWIDTH 30 0
BBX 21 26 4 0
BITMAP
700038
F00038
F00038
F00038
F00038
F00038
F00038
F00038
F00038
F00038
F00038
F00038
F00038
F00038
F00038
F00038
F07838
F0FC38
F1FE38
F3FF38
F3CF38
F787B8
FF03F8
FE01F8
FE01F8
7C00F8
ENDCHAR
STARTCHAR X
ENCODING 88
SWIDTH 779 0
DWIDTH 23 0
BBX 17 26 3 0
BITMAP
F00780
780700
780F00
3C0E00
3C1E00
1E1C00
1E3C00
0F3800
0F7800
07F000
07F000
03E000
03E000
03E000
07F000
07F000
0F7800
0F7800
1E3C00
1E1C00
3C1E00
3C0E00
780F00
780780
F00780
F00380
ENDCHAR
STARTCHAR Y
ENCODING 89
SWIDTH 730 0
DWIDTH 22 0
BBX 18 26 2 0
BITMAP
F003C0
700380
780780
780700
3C0F00
3C0E00
1E1E00
1E1E00
0F3C00
0F3C00
073800
07F800
03F000
03F000
01E000
01E000
01E000
01E000
01E000
01E000
01E000
01E000
01E000
01E000
01E000
01E000
ENDCHAR
STARTCHAR Z
ENCODING 90
SWIDTH 711 0
DWIDTH 21 0
BBX 17 26 2 0
BITMAP
7FFE00
7FFF00
7FFF00
000F00
001E00
003E00
003C00
007C00
007800
00F000
00F000
01E000
03E000
03C000
078000
078000
0F0000
1F0000
1E0000
3C0000
3C0000
780000
780000
FFFF80
7FFF80
7FFF80
ENDCHAR
STARTCHAR underscore
ENCODING 95
SWIDTH 640 0
DWIDTH 19 0
BBX 17 4 1 -6
BITMAP
FFFF80
FFFF80
FFFF80
7FFF00
ENDCHAR
STARTCHAR a
ENCODING 97
SWIDTH 724 0
DWIDTH 22 0
BBX 15 21 3 0
BITMAP
7FF8
7FFC
7FFE
001E
001E
001E
001E
001E
001E
7FFE
7FFE
FFFE
F01E
F01E
F01E
F01E
F01E
F01E
FFFE
7FFE
3FFE
ENDCHAR
STARTCHAR b
ENCODING 98
SWIDTH 761 0
DWIDTH 23 0
BBX 15 27 4 0
BITMAP
E000
F000
F000
F000
F000
F000
FFFC
FFFE
FFFE
F00E
F00E
F00E
F00E
F00E
F00E
F00E
F00E
F00E
F00E
F00E
F00E
F00E
F00E
F00E
FFFE
FFFE
FFFC
ENDCHAR
STARTCHAR c
ENCODING 99
SWIDTH 639 0
DWIDTH 19 0
BBX 13 21 4 0
BITMAP
7FF8
FFF8
FFF8
E000
E000
E000
E000
E000
E000
E000
E000
E000
E000
E000
E000
E000
E000
E000
FFF8
FFF8
7FF8
ENDCHAR
STARTCHAR d
ENCODING 100
SWIDTH 761 0
DWIDTH 23 0
BBX 15 27 4 0
BITMAP
001C
001E
001E
001E
001E
001E
7FFE
FFFE
FFFE
E01E
E01E
E01E
E01E
E01E
E01E
E01E
E01E
E01E
E01E
E01E
E01E
E01E
E01E
E01E
FFFE
FFFE
7FFE
ENDCHAR
STARTCHAR e
ENCODING 101
SWIDTH 717 0
DWIDTH 22 0
BBX 14 21 4 0
BITMAP
7FF8
FFF8
FFFC
E03C
E03C
E03C
E03C
E03C
E03C
FFFC
FFFC
FFFC
E000
E000
E000
E000
E000
E000
FFFC
FFFC
7FFC
ENDCHAR
STARTCHAR f
ENCODING 102
SWIDTH 515 0
DWIDTH 15 0
BBX 11 25 2 1
BITMAP
0FE0
1FE0
1FE0
1E00
1E00
FFE0
FFE0
FFE0
1E00
1E00
1E00
1E00
1E00
1E00
1E00
1E00
1E00
1E00
1E00
1E00
1E00
1E00
1E00
1E00
1E00
ENDCHAR
STARTCHAR g
ENCODING 103
SWIDTH 764 0
DWIDTH 23 0
BBX 18 25 2 -4
BITMAP
07FFC0
0FFFC0
0FFFC0
0E0F00
0E0F00
0E0F00
0E0F00
0E0F00
7FFF00
7FFE00
FFFC00
F00000
F00000
F00000
FFFF80
7FFF80
7FFFC0
0E03C0
0E03C0
0E03C0
0E03C0
0E03C0
0FFFC0
0FFF80
07FF80
ENDCHAR
STARTCHAR h
ENCODING 104
SWIDTH 780 0
DWIDTH 23 0
BBX 15 26 4 1
BITMAP
E000
F000
F000
F000
F000
F000
FFFC
FFFE
FFFE
F00E
F00E
F00E
F00E
F00E
F00E
F00E
F00E
F00E
F00E
F00E
F00E
F00E
F00E
F00E
F00E
F00E
ENDCHAR
STARTCHAR i
ENCODING 105
SWIDTH 396 0
DWIDTH 12 0
BBX 4 26 4 0
BITMAP
F0
F0
F0
60
00
00
F0
F0
F0
F0
F0
F0
F0
F0
F0
F0
F0
F0
F0
F0
F0
F0
F0
F0
F0
F0
ENDCHAR
STARTCHAR j
ENCODING 106
SWIDTH 419 0
DWIDTH 13 0
BBX 8 29 0 -3
BITMAP
07
07
07
07
00
00
07
07
07
07
07
07
07
07
07
07
07
07
07
07
07
07
07
07
07
07
FF
FF
FE
ENDCHAR
STARTCHAR k
ENCODING 107
SWIDTH 724 0
DWIDTH 22 0
BBX 16 26 4 0
BITMAP
F000
F000
F000
F000
F000
F000
F01E
F03C
F03C
F078
F078
F0F0
F0E0
F1E0
FFC0
FFC0
FFC0
F1E0
F0F0
F0F0
F078
F078
F03C
F03C
F01E
F00F
ENDCHAR
STARTCHAR l
ENCODING 108
SWIDTH 460 0
DWIDTH 14 0
BBX 7 26 4 0
BITMAP
F0
F0
F0
F0
F0
F0
F0
F0
F0
F0
F0
F0
F0
F0
F0
F0
F0
F0
F0
F0
F0
F0
F0
FE
7E
7E
ENDCHAR
STARTCHAR m
ENCODING 109
SWIDTH 990 0
DWIDTH 30 0
BBX 22 20 4 1
BITMAP
FFFFF0
FFFFF8
FFFFFC
F0783C
F0783C
F0783C
F0783C
F0783C
F0783C
F0783C
F0783C
F0783C
F0783C
F0783C
F0783C
F0783C
F0783C
F0783C
F0783C
F0783C
ENDCHAR
STARTCHAR n
ENCODING 110
SWIDTH 780 0
DWIDTH 23 0
BBX 15 20 4 1
BITMAP
FFFC
FFFE
FFFE
F00E
F00E
F00E
F00E
F00E
F00E
F00E
F00E
F00E
F00E
F00E
F00E
F00E
F00E
F00E
F00E
F00E
ENDCHAR
STARTCHAR o
ENCODING 111
SWIDTH 745 0
DWIDTH 22 0
BBX 15 21 4 0
BITMAP
7FFC
FFFC
FFFE
E01E
E01E
E01E
E01E
E01E
E01E
E01E
E01E
E01E
E01E
E01E
E01E
E01E
E01E
E01E
FFFE
FFFC
7FFC
ENDCHAR
STARTCHAR p
ENCODING 112
SWIDTH 761 0
DWIDTH 23 0
BBX 15 25 4 -4
BITMAP
FFFC
FFFE
FFFE
F00E
F00E
F00E
F00E
F00E
F00E
F00E
F00E
F00E
F00E
F00E
F00E
F00E
F00E
F00E
FFFE
FFFE
FFFC
F000
F000
F000
F000
ENDCHAR
STARTCHAR q
ENCODING 113
SWIDTH 761 0
DWIDTH 23 0
BBX 15 25 4 -4
BITMAP
7FFE
FFFE
FFFE
E01E
E01E
E01E
E01E
E01E
E01E
E01E
E01E
E01E
E01E
E01E
E01E
E01E
E01E
E01E
FFFE
FFFE
7FFE
001E
001E
001E
001E
ENDCHAR
STARTCHAR r
ENCODING 114
SWIDTH 527 0
DWIDTH 16 0
BBX 10 20 4 1
BITMAP
7FC0
7FC0
FFC0
F000
F000
F000
F000
F000
F000
F000
F000
F000
F000
F000
F000
F000
F000
F000
F000
F000
ENDCHAR
STARTCHAR s
ENCODING 115
SWIDTH 688 0
DWIDTH 21 0
BBX 13 21 4 0
BITMAP
7FF0
FFF8
FFF8
E000
E000
E000
E000
E000
E000
FFF0
FFF8
7FF8
0078
0078
0078
0078
0078
0078
FFF8
FFF8
FFF0
ENDCHAR
STARTCHAR t
ENCODING 116
SWIDTH 608 0
DWIDTH 18 0
BBX 13 27 3 0
BITMAP
1C00
1C00
1C00
1C00
1C00
1C00
FFF0
FFF0
FFF0
1C00
1C00
1C00
1C00
1C00
1C00
1C00
1C00
1C00
1C00
1C00
1C00
1C00
1C00
1C00
1FF8
1FF8
0FF8
ENDCHAR
STARTCHAR u
ENCODING 117
SWIDTH 786 0
DWIDTH 24 0
BBX 15 20 4 0
BITMAP
F00E
F00E
F00E
F00E
F00E
F00E
F00E
F00E
F00E
F00E
F00E
F00E
F00E
F00E
F00E
F00E
F00E
FFFE
7FFE
7FFC
ENDCHAR
STARTCHAR v
ENCODING 118
SWIDTH 721 0
DWIDTH 22 0
BBX 17 21 2 0
BITMAP
F00380
F00380
700780
780780
780700
380F00
3C0F00
3C0E00
3C1E00
1C1E00
1E1C00
1E3C00
0E3C00
0F3800
0F3800
077800
077000
07F000
07F000
03E000
018000
ENDCHAR
STARTCHAR w
ENCODING 119
SWIDTH 880 0
DWIDTH 26 0
BBX 18 21 4 0
BITMAP
F001C0
F001C0
F001C0
F001C0
F001C0
F001C0
F001C0
F001C0
F001C0
F001C0
F001C0
F041C0
F1E1C0
F3F1C0
F7F9C0
FFBDC0
FF1FC0
FE0FC0
FC07C0
F803C0
600180
ENDCHAR
STARTCHAR x
ENCODING 120
SWIDTH 670 0
DWIDTH 20 0
BBX 16 20 2 0
BITMAP
781E
781E
3C3C
3C38
1E78
0E70
0FF0
07E0
07E0
03C0
07E0
07E0
0FF0
0E78
1E78
3C3C
381C
781E
700F
F00F
ENDCHAR
STARTCHAR y
ENCODING 121
SWIDTH 721 0
DWIDTH 22 0
BBX 18 24 2 -3
BITMAP
F003C0
F00780
700780
780780
780F00
3C0F00
3C0E00
3C1E00
1E1E00
1E1C00
0E3C00
0F3C00
0F3800
077800
07F800
07F000
03F000
01F000
00E000
01E000
01C000
03C000
03C000
038000
ENDCHAR
STARTCHAR z
ENCODING 122
SWIDTH 673 0
DWIDTH 20 0
BBX 15 21 3 0
BITMAP
7FF8
7FFC
7FFC
0078
00F8
00F0
01E0
01E0
03C0
07C0
0780
0F00
0F00
1E00
1E00
3C00
7800
7800
FFFE
FFFE
7FFE
ENDCHAR
STARTCHAR uni0237
ENCODING 567
SWIDTH 419 0
DWIDTH 13 0
BBX 8 23 0 -3
BITMAP
07
07
07
07
07
07
07
07
07
07
07
07
07
07
07
07
07
07
07
07
FF
FF
FE
ENDCHAR
STARTCHAR .notdef
ENCODING -1
SWIDTH 500 0
DWIDTH 15 0
BBX 9 30 3 -4
BITMAP
FF80
FF80
C180
F780
C180
FF80
C780
D780
C180
FF80
C180
F780
C580
FD80
FF80
D180
D580
DD80
C180
FF80
FF80
C180
DD80
C180
FF80
C180
E780
C180
FF80
FF80
ENDCHAR
STARTCHAR dotlessi
ENCODING -1
SWIDTH 396 0
DWIDTH 12 0
BBX 4 20 4 0
BITMAP
F0
F0
F0
F0
F0
F0
F0
F0
F0
F0
F0
F0
F0
F0
F0
F0
F0
F0
F0
F0
ENDCHAR
STARTCHAR uni0307
ENCODING -1
SWIDTH 0 0
DWIDTH 0 0
BBX 4 4 -8 22
BITMAP
F0
F0
F0
60
ENDCHAR
ENDFONT
